<?xml version="1.0" standalone="no"?>
<!DOCTYPE svg PUBLIC "-//W3C//DTD SVG 20010904//EN"
 "http://www.w3.org/TR/2001/REC-SVG-20010904/DTD/svg10.dtd">
<svg version="1.0" xmlns="http://www.w3.org/2000/svg"
 width="457.000000pt" height="84.000000pt" viewBox="0 0 457.000000 84.000000"
 preserveAspectRatio="xMidYMid meet">

<g transform="translate(0.000000,84.000000) scale(0.100000,-0.100000)"
fill="#000000" stroke="none">
<path d="M0 420 l0 -420 2285 0 2285 0 0 420 0 420 -2285 0 -2285 0 0 -420z
m367 374 c35 -25 70 -94 78 -156 l7 -47 -33 -5 c-19 -3 -55 -8 -80 -11 l-46
-6 -6 47 c-6 54 -29 79 -58 64 -42 -23 -35 -93 15 -143 18 -17 64 -62 103 -99
86 -82 106 -121 111 -214 8 -142 -65 -214 -216 -214 -98 0 -148 27 -184 100
-14 30 -28 76 -31 102 -5 53 -7 51 94 63 l56 7 7 -51 c8 -60 44 -98 77 -80 19
10 23 24 19 69 -4 44 -26 74 -118 158 -109 99 -132 141 -132 235 0 103 27 152
105 189 56 26 191 22 232 -8z m3133 -106 c34 -184 58 -304 60 -298 1 3 21 97
44 210 l42 205 97 3 97 3 0 -238 c0 -131 3 -309 7 -395 l6 -158 -65 0 -65 0
-7 77 c-3 42 -6 146 -6 231 0 86 -2 153 -5 150 -3 -3 -21 -95 -40 -204 -19
-110 -37 -211 -41 -227 -5 -26 -8 -27 -64 -27 l-58 0 -22 123 c-13 67 -33 174
-45 237 l-23 115 -1 -125 c-1 -69 -4 -176 -8 -237 l-6 -113 -65 0 -65 0 6 263
c4 144 7 322 7 395 l0 132 99 0 98 0 23 -122z m-1220 -23 l0 -85 40 0 40 0 0
-55 0 -55 -40 0 -40 0 0 -155 c0 -144 1 -155 20 -165 11 -6 31 -8 45 -4 25 6
25 6 25 -65 l0 -71 -85 0 c-162 0 -175 20 -175 280 l0 180 -25 0 c-24 0 -25 3
-25 55 0 52 1 55 25 55 25 0 25 1 25 85 l0 85 85 0 85 0 0 -85z m-1384 -100
l25 -25 31 21 c32 24 109 36 153 25 14 -4 34 -21 45 -39 18 -30 20 -51 20
-279 l0 -248 -80 0 -80 0 0 225 c0 246 -1 251 -56 227 l-24 -12 0 -220 0 -220
-80 0 -80 0 0 225 c0 246 -1 251 -56 227 l-24 -12 0 -220 0 -220 -80 0 -80 0
0 280 0 280 80 0 c65 0 80 -3 80 -15 0 -13 6 -12 38 4 23 13 57 20 90 21 44 0
57 -4 78 -25z m684 -10 c18 -16 37 -41 43 -55 6 -14 13 -124 16 -253 l6 -228
-75 3 c-74 3 -75 3 -81 33 -4 17 -7 24 -8 17 0 -7 -12 -24 -26 -37 -18 -19
-35 -25 -70 -25 -91 0 -135 47 -135 142 0 89 49 144 167 189 61 23 63 25 63
61 0 43 -25 75 -45 58 -7 -6 -16 -26 -19 -45 l-7 -35 -76 0 -76 0 6 51 c8 66
34 108 83 137 33 19 51 22 121 20 75 -3 84 -5 113 -33z m460 -51 c0 -84 0 -85
-22 -78 -36 12 -68 8 -97 -14 l-26 -19 -3 -187 -2 -186 -80 0 -80 0 0 280 0
280 80 0 80 0 0 -35 0 -35 36 40 c31 34 43 40 75 40 l39 0 0 -86z m707 60 c44
-32 64 -83 70 -184 l6 -90 -117 0 -116 0 0 -69 c0 -79 17 -109 51 -91 15 8 19
22 19 60 l0 50 81 0 82 0 -7 -63 c-8 -70 -28 -110 -69 -141 -24 -18 -43 -21
-122 -21 -101 0 -125 10 -169 69 -19 25 -21 44 -24 189 -4 189 0 216 35 258
40 48 76 60 170 57 64 -2 88 -7 110 -24z m463 -60 c0 -84 0 -85 -22 -78 -36
12 -68 8 -97 -14 l-26 -19 -3 -187 -2 -186 -80 0 -80 0 0 280 0 280 80 0 80 0
0 -35 0 -35 36 40 c31 34 43 40 75 40 l39 0 0 -86z m1030 68 c56 -29 80 -88
80 -194 l0 -88 -110 0 -110 0 0 -75 c0 -63 3 -76 19 -85 30 -15 51 12 51 66
l0 44 75 0 75 0 0 -55 c0 -71 -19 -116 -61 -146 -30 -21 -45 -24 -126 -24 -77
0 -96 3 -120 21 -72 53 -88 117 -81 312 5 123 15 157 60 199 34 33 65 42 143
42 50 1 81 -4 105 -17z m320 -477 l0 -75 -80 0 -80 0 0 75 0 75 80 0 80 0 0
-75z"/>
<path d="M1431 246 c-27 -28 -32 -40 -29 -71 4 -45 28 -66 56 -49 13 9 18 28
20 83 2 39 -1 71 -6 71 -4 0 -23 -15 -41 -34z"/>
<path d="M2606 464 c-10 -9 -16 -33 -16 -60 0 -44 0 -44 35 -44 l35 0 0 50 c0
38 -4 52 -19 60 -15 7 -23 6 -35 -6z"/>
<path d="M4118 469 c-13 -7 -18 -23 -18 -59 l0 -50 35 0 c35 0 35 0 35 44 0
27 -6 51 -16 60 -8 9 -16 16 -17 16 -1 0 -10 -5 -19 -11z"/>
</g>
</svg>
